<svg width="128" height="128" viewBox="0 0 128 128" fill="none" xmlns="http://www.w3.org/2000/svg">
<g clip-path="url(#clip0_6_93)">
<rect width="128" height="128" fill="#0C0E14"/>
<path opacity="0.32" d="M102.978 63.5859H25.5117" stroke="#2D6070" stroke-width="3" stroke-linecap="round"/>
<path opacity="0.3" d="M87.0041 65.1772L41.4844 61.9941" stroke="#2D6070" stroke-width="3" stroke-linecap="round"/>
<path opacity="0.84" d="M94.4564 67.8319L34.0322 59.3398" stroke="#2D6070" stroke-width="3" stroke-linecap="round"/>
<path opacity="0.8" d="M86.7346 68.3664L41.7549 58.8057" stroke="#2D6070" stroke-width="3" stroke-linecap="round"/>
<path opacity="0.93" d="M1 45.4512L127.489 81.7214" stroke="#2D6070" stroke-width="3" stroke-linecap="round"/>
<path opacity="0.39" d="M46.0459 56.9619L82.4432 70.2094" stroke="#2D6070" stroke-width="3" stroke-linecap="round"/>
<path opacity="0.1" d="M57.7012 60.6729L70.7886 66.4997" stroke="#2D6070" stroke-width="3" stroke-linecap="round"/>
<path opacity="0.3" d="M11.3057 35.4375L117.183 91.7335" stroke="#2D6070" stroke-width="3" stroke-linecap="round"/>
<path opacity="0.17" d="M108.341 91.1407L20.1475 36.0312" stroke="#2D6070" stroke-width="3" stroke-linecap="round"/>
<path opacity="0.5" d="M18.3145 30.2158L110.176 96.9568" stroke="#2D6070" stroke-width="3" stroke-linecap="round"/>
<path opacity="0.51" d="M27.46 32.7207L101.029 94.4521" stroke="#2D6070" stroke-width="3" stroke-linecap="round"/>
<path opacity="0.18" d="M75.5679 74.5204L52.9219 52.6514" stroke="#2D6070" stroke-width="3" stroke-linecap="round"/>
<path opacity="0.9" d="M40.9307 37.6934L87.5586 89.4789" stroke="#2D6070" stroke-width="3" stroke-linecap="round"/>
<path opacity="0.75" d="M82.1562 86.5131L46.332 40.6602" stroke="#2D6070" stroke-width="3" stroke-linecap="round"/>
<path opacity="0.93" d="M34.9199 20.1113L93.5682 107.061" stroke="#2D6070" stroke-width="3" stroke-linecap="round"/>
<path opacity="0.71" d="M50.0508 39.0029L78.4374 88.17" stroke="#2D6070" stroke-width="3" stroke-linecap="round"/>
<path opacity="0.42" d="M47.2646 28.7725L81.2236 98.3987" stroke="#2D6070" stroke-width="3" stroke-linecap="round"/>
<path opacity="0.73" d="M81.2725 105.73L47.2178 21.4414" stroke="#2D6070" stroke-width="3" stroke-linecap="round"/>
<path opacity="0.6" d="M74.6288 95.5458L53.8604 31.627" stroke="#2D6070" stroke-width="3" stroke-linecap="round"/>
<path opacity="0.54" d="M49.7402 5.41016L78.75 121.762" stroke="#2D6070" stroke-width="3" stroke-linecap="round"/>
<path opacity="0.62" d="M56.2441 18.2129L72.2451 108.959" stroke="#2D6070" stroke-width="3" stroke-linecap="round"/>
<path opacity="0.74" d="M57.6543 0.879883L70.8357 126.293" stroke="#2D6070" stroke-width="3" stroke-linecap="round"/>
<path opacity="0.76" d="M64.4452 69.3309L64.0439 57.8418" stroke="#2D6070" stroke-width="3" stroke-linecap="round"/>
<path opacity="0.94" d="M62.6215 110.073L65.8682 17.0996" stroke="#2D6070" stroke-width="3" stroke-linecap="round"/>
<path opacity="0.19" d="M68.21 25.8564L60.2789 101.315" stroke="#2D6070" stroke-width="3" stroke-linecap="round"/>
<path opacity="0.47" d="M58.0255 98.857L70.4639 28.3154" stroke="#2D6070" stroke-width="3" stroke-linecap="round"/>
<path opacity="0.6" d="M54.2963 103.485L74.1924 23.6865" stroke="#2D6070" stroke-width="3" stroke-linecap="round"/>
<path opacity="0.48" d="M51.3186 103.367L77.1699 23.8047" stroke="#2D6070" stroke-width="3" stroke-linecap="round"/>
<path opacity="0.61" d="M55.433 85.3964L73.0566 41.7764" stroke="#2D6070" stroke-width="3" stroke-linecap="round"/>
<path opacity="0.43" d="M47.8081 97.2865L80.6816 29.8857" stroke="#2D6070" stroke-width="3" stroke-linecap="round"/>
<path opacity="0.39" d="M61.3266 68.6404L67.1631 58.5312" stroke="#2D6070" stroke-width="3" stroke-linecap="round"/>
<path opacity="0.99" d="M63.5028 64.6857L64.9863 62.4863" stroke="#2D6070" stroke-width="3" stroke-linecap="round"/>
<path opacity="0.41" d="M55.1526 75.2231L73.3369 51.9482" stroke="#2D6070" stroke-width="3" stroke-linecap="round"/>
<path opacity="0.69" d="M75.3691 51.2314L53.1203 75.9413" stroke="#2D6070" stroke-width="3" stroke-linecap="round"/>
<path opacity="0.86" d="M88.1631 40.4883L40.3264 86.6836" stroke="#2D6070" stroke-width="3" stroke-linecap="round"/>
<path opacity="0.76" d="M72.2383 56.8789L56.251 70.2938" stroke="#2D6070" stroke-width="3" stroke-linecap="round"/>
<path opacity="0.82" d="M29.6176 88.7443L98.8711 38.4287" stroke="#2D6070" stroke-width="3" stroke-linecap="round"/>
<path opacity="0.67" d="M62.8949 64.4292L65.5947 62.7422" stroke="#2D6070" stroke-width="3" stroke-linecap="round"/>
<path opacity="0.57" d="M119.682 34.1094L8.80706 93.0624" stroke="#2D6070" stroke-width="3" stroke-linecap="round"/>
<path opacity="0.1" d="M117.321 39.9551L11.1678 87.2177" stroke="#2D6070" stroke-width="3" stroke-linecap="round"/>
<path opacity="0.84" d="M47.9575 69.5144L80.5322 57.6582" stroke="#2D6070" stroke-width="3" stroke-linecap="round"/>
<path opacity="0.42" d="M117.714 48.2539L10.7761 78.9178" stroke="#2D6070" stroke-width="3" stroke-linecap="round"/>
<path opacity="0.99" d="M96.5088 56.7275L31.9802 70.4435" stroke="#2D6070" stroke-width="3" stroke-linecap="round"/>
<path opacity="0.14" d="M60.1287 64.1647L68.3604 63.0078" stroke="#2D6070" stroke-width="3" stroke-linecap="round"/>
<path opacity="0.68" d="M30.1052 65.9728L98.3848 61.1982" stroke="#2D6070" stroke-width="3" stroke-linecap="round"/>
<path opacity="0.29" d="M42.8435 63.5859L85.6445 63.5859" stroke="#2D6070" stroke-width="3" stroke-linecap="round"/>
<path opacity="0.76" d="M69.9785 63.9873L58.5104 63.1854" stroke="#2D6070" stroke-width="3" stroke-linecap="round"/>
<path opacity="0.46" d="M114.248 70.6133L14.2417 56.5583" stroke="#2D6070" stroke-width="3" stroke-linecap="round"/>
<path opacity="0.55" d="M122.545 75.9785L5.94372 51.1942" stroke="#2D6070" stroke-width="3" stroke-linecap="round"/>
<path opacity="0.95" d="M91.7012 71.459L36.7872 55.7127" stroke="#2D6070" stroke-width="3" stroke-linecap="round"/>
<path opacity="0.51" d="M82.8584 70.3613L45.6302 56.8114" stroke="#2D6070" stroke-width="3" stroke-linecap="round"/>
<path opacity="0.47" d="M116.675 86.9297L11.8139 40.2426" stroke="#2D6070" stroke-width="3" stroke-linecap="round"/>
<path opacity="0.17" d="M66.5869 64.8311L61.9021 62.3401" stroke="#2D6070" stroke-width="3" stroke-linecap="round"/>
<path opacity="0.21" d="M78.1182 72.2559L50.3702 54.917" stroke="#2D6070" stroke-width="3" stroke-linecap="round"/>
<path opacity="0.97" d="M99.3008 89.0557L29.1888 38.1163" stroke="#2D6070" stroke-width="3" stroke-linecap="round"/>
<path opacity="0.2" d="M43.7184 46.3628L84.7705 80.8096" stroke="#2D6070" stroke-width="3" stroke-linecap="round"/>
<path opacity="0.27" d="M89.4346 87.9121L39.0534 39.2596" stroke="#2D6070" stroke-width="3" stroke-linecap="round"/>
<path opacity="0.8" d="M55.7827 54.1881L72.7061 72.9834" stroke="#2D6070" stroke-width="3" stroke-linecap="round"/>
<path opacity="0.36" d="M73.4453 75.3633L55.0432 51.8097" stroke="#2D6070" stroke-width="3" stroke-linecap="round"/>
<path opacity="0.67" d="M79.3271 85.9473L49.1624 41.2261" stroke="#2D6070" stroke-width="3" stroke-linecap="round"/>
<path opacity="0.79" d="M36.698 15.8739L91.791 111.298" stroke="#2D6070" stroke-width="3" stroke-linecap="round"/>
<path opacity="0.53" d="M76.4561 88.623L52.0335 38.5494" stroke="#2D6070" stroke-width="3" stroke-linecap="round"/>
<path opacity="0.32" d="M54.6709 39.8905L73.8184 87.2822" stroke="#2D6070" stroke-width="3" stroke-linecap="round"/>
<path opacity="0.11" d="M75.8584 99.3301L52.6305 27.8419" stroke="#2D6070" stroke-width="3" stroke-linecap="round"/>
<path opacity="0.62" d="M74.4922 104.687L53.9971 22.4853" stroke="#2D6070" stroke-width="3" stroke-linecap="round"/>
<path opacity="0.31" d="M66.6865 77.4336L61.8033 49.7395" stroke="#2D6070" stroke-width="3" stroke-linecap="round"/>
<path opacity="0.84" d="M70.9277 127.172L57.5614 -9.48619e-05" stroke="#2D6070" stroke-width="3" stroke-linecap="round"/>
<path opacity="0.67" d="M62.7508 20.8114L65.7383 106.361" stroke="#2D6070" stroke-width="3" stroke-linecap="round"/>
<path opacity="0.09" d="M64.7538 49.0032L63.7354 78.168" stroke="#2D6070" stroke-width="3" stroke-linecap="round"/>
<path opacity="0.46" d="M65.8341 48.459L62.6543 78.7129" stroke="#2D6070" stroke-width="3" stroke-linecap="round"/>
<path opacity="0.23" d="M72.3366 17.6903L56.1514 109.481" stroke="#2D6070" stroke-width="3" stroke-linecap="round"/>
<path opacity="0.45" d="M76.9314 12.704L51.5586 114.469" stroke="#2D6070" stroke-width="3" stroke-linecap="round"/>
<path opacity="0.38" d="M62.6055 68.6318L65.8847 58.5394" stroke="#2D6070" stroke-width="3" stroke-linecap="round"/>
<path opacity="0.72" d="M63.2842 65.9639L65.2056 61.2083" stroke="#2D6070" stroke-width="3" stroke-linecap="round"/>
<path opacity="0.18" d="M34.9766 123.595L93.5132 3.57685" stroke="#2D6070" stroke-width="3" stroke-linecap="round"/>
<path opacity="0.12" d="M85.6893 26.4428L42.7998 100.729" stroke="#2D6070" stroke-width="3" stroke-linecap="round"/>
<path opacity="0.82" d="M38.1846 102.223L90.3054 24.9504" stroke="#2D6070" stroke-width="3" stroke-linecap="round"/>
<path opacity="0.98" d="M90.4319 30.0673L38.0566 97.1045" stroke="#2D6070" stroke-width="3" stroke-linecap="round"/>
<path opacity="0.27" d="M38.623 92.042L89.8664 35.1305" stroke="#2D6070" stroke-width="3" stroke-linecap="round"/>
<path opacity="0.47" d="M104.193 25.0081L24.2959 102.164" stroke="#2D6070" stroke-width="3" stroke-linecap="round"/>
<path opacity="0.85" d="M46.0215 78.877L82.4671 48.2955" stroke="#2D6070" stroke-width="3" stroke-linecap="round"/>
<path opacity="0.91" d="M75.9778 55.0613L52.5117 72.1104" stroke="#2D6070" stroke-width="3" stroke-linecap="round"/>
<path opacity="0.82" d="M26.6729 87.0635L101.817 40.108" stroke="#2D6070" stroke-width="3" stroke-linecap="round"/>
<path opacity="0.36" d="M85.1706 52.4592L43.3193 74.7119" stroke="#2D6070" stroke-width="3" stroke-linecap="round"/>
<path opacity="0.34" d="M90.6615 51.8243L37.8271 75.3477" stroke="#2D6070" stroke-width="3" stroke-linecap="round"/>
<path opacity="0.64" d="M7.90332 84.0928L120.585 43.0799" stroke="#2D6070" stroke-width="3" stroke-linecap="round"/>
<path opacity="0.31" d="M83.1158 58.1745L45.373 68.9971" stroke="#2D6070" stroke-width="3" stroke-linecap="round"/>
<path opacity="0.41" d="M96.2498 56.783L32.2402 70.3887" stroke="#2D6070" stroke-width="3" stroke-linecap="round"/>
<path d="M55.8438 79.2812C55.8438 77.5312 56.4375 76.0625 57.625 74.875C58.875 73.625 60.375 73 62.125 73H76.4688L74.0312 66.0625C73.0312 63.5 72.0312 61.0938 71.0312 58.8438C70.0938 56.5312 69 54.4375 67.75 52.5625C66.625 50.6875 65.3438 49.6875 63.9062 49.5625C62.4062 49.6875 61.0625 50.6875 59.875 52.5625C58.6875 54.4375 57.5938 56.5312 56.5938 58.8438C55.6562 61.0938 54.6875 63.5 53.6875 66.0625L44.7812 90.4375C44.1562 91.75 43.3438 92.8438 42.3438 93.7188C41.4062 94.5312 39.9688 94.9375 38.0312 94.9375C36.2188 94.9375 34.7188 94.3125 33.5312 93.0625C32.4062 91.8125 31.9062 90.3125 32.0312 88.5625C32.0938 87.75 32.2812 87 32.5938 86.3125L42.9062 59.6875C45.7812 52.6875 48.6562 47.0312 51.5312 42.7188C54.3438 38.4688 58.4688 36.3125 63.9062 36.25C69.2812 36.3125 73.375 38.4688 76.1875 42.7188C79.0625 46.9062 81.9375 52.5625 84.8125 59.6875L95.125 86.3125C95.4375 87 95.625 87.75 95.6875 88.5625C95.8125 90.3125 95.2812 91.8125 94.0938 93.0625C92.9688 94.3125 91.5 94.9375 89.6875 94.9375C87.625 94.9375 86.0938 94.5312 85.0938 93.7188C84.1562 92.8438 83.375 91.75 82.75 90.4375L80.9688 85.5625H62.125C60.375 85.5625 58.9062 84.9375 57.7188 83.6875C56.4688 82.5 55.8438 81.0312 55.8438 79.2812Z" fill="white"/>
</g>
<defs>
<clipPath id="clip0_6_93">
<rect width="128" height="128" fill="white"/>
</clipPath>
</defs>
</svg>
