<svg width="800" height="800" viewBox="0 0 800 800" fill="none" xmlns="http://www.w3.org/2000/svg">
<path opacity="0.32" d="M641.179 400.052H158.672" stroke="#FE7D33" stroke-width="3" stroke-linecap="round"/>
<path opacity="0.3" d="M541.687 409.965L258.163 390.139" stroke="#FE7D33" stroke-width="3" stroke-linecap="round"/>
<path opacity="0.84" d="M588.106 426.499L211.747 373.605" stroke="#FE7D33" stroke-width="3" stroke-linecap="round"/>
<path opacity="0.8" d="M540.007 429.827L259.846 370.277" stroke="#FE7D33" stroke-width="3" stroke-linecap="round"/>
<path opacity="0.93" d="M6 287.096L793.852 513.009" stroke="#FE7D33" stroke-width="3" stroke-linecap="round"/>
<path opacity="0.39" d="M286.574 358.796L513.279 441.31" stroke="#FE7D33" stroke-width="3" stroke-linecap="round"/>
<path opacity="0.1" d="M359.168 381.905L440.684 418.199" stroke="#FE7D33" stroke-width="3" stroke-linecap="round"/>
<path opacity="0.3" d="M70.1914 224.729L729.661 575.375" stroke="#FE7D33" stroke-width="3" stroke-linecap="round"/>
<path opacity="0.17" d="M674.588 571.68L125.265 228.425" stroke="#FE7D33" stroke-width="3" stroke-linecap="round"/>
<path opacity="0.5" d="M113.843 192.201L686.009 607.904" stroke="#FE7D33" stroke-width="3" stroke-linecap="round"/>
<path opacity="0.51" d="M170.812 207.802L629.042 592.303" stroke="#FE7D33" stroke-width="3" stroke-linecap="round"/>
<path opacity="0.18" d="M470.453 468.159L329.399 331.945" stroke="#FE7D33" stroke-width="3" stroke-linecap="round"/>
<path opacity="0.9" d="M254.712 238.776L545.139 561.328" stroke="#FE7D33" stroke-width="3" stroke-linecap="round"/>
<path opacity="0.75" d="M511.493 542.853L288.358 257.253" stroke="#FE7D33" stroke-width="3" stroke-linecap="round"/>
<path opacity="0.93" d="M217.277 129.265L582.574 670.84" stroke="#FE7D33" stroke-width="3" stroke-linecap="round"/>
<path opacity="0.71" d="M311.521 246.931L488.33 553.173" stroke="#FE7D33" stroke-width="3" stroke-linecap="round"/>
<path opacity="0.42" d="M294.167 183.215L505.684 616.89" stroke="#FE7D33" stroke-width="3" stroke-linecap="round"/>
<path opacity="0.73" d="M505.983 662.552L293.869 137.553" stroke="#FE7D33" stroke-width="3" stroke-linecap="round"/>
<path opacity="0.6" d="M464.605 599.115L335.246 200.99" stroke="#FE7D33" stroke-width="3" stroke-linecap="round"/>
<path opacity="0.54" d="M309.581 37.6978L490.271 762.407" stroke="#FE7D33" stroke-width="3" stroke-linecap="round"/>
<path opacity="0.62" d="M350.095 117.441L449.759 682.663" stroke="#FE7D33" stroke-width="3" stroke-linecap="round"/>
<path opacity="0.74" d="M358.875 9.47803L440.977 790.627" stroke="#FE7D33" stroke-width="3" stroke-linecap="round"/>
<path opacity="0.76" d="M401.175 435.833L398.676 364.272" stroke="#FE7D33" stroke-width="3" stroke-linecap="round"/>
<path opacity="0.94" d="M389.815 689.6L410.037 110.504" stroke="#FE7D33" stroke-width="3" stroke-linecap="round"/>
<path opacity="0.19" d="M424.625 165.051L375.226 635.055" stroke="#FE7D33" stroke-width="3" stroke-linecap="round"/>
<path opacity="0.47" d="M361.189 619.74L438.663 180.364" stroke="#FE7D33" stroke-width="3" stroke-linecap="round"/>
<path opacity="0.6" d="M337.963 648.57L461.888 151.535" stroke="#FE7D33" stroke-width="3" stroke-linecap="round"/>
<path opacity="0.48" d="M319.417 647.833L480.435 152.271" stroke="#FE7D33" stroke-width="3" stroke-linecap="round"/>
<path opacity="0.61" d="M345.041 535.898L454.812 264.206" stroke="#FE7D33" stroke-width="3" stroke-linecap="round"/>
<path opacity="0.43" d="M297.547 609.959L502.304 190.146" stroke="#FE7D33" stroke-width="3" stroke-linecap="round"/>
<path opacity="0.39" d="M381.748 431.536L418.102 368.57" stroke="#FE7D33" stroke-width="3" stroke-linecap="round"/>
<path opacity="0.99" d="M395.305 406.902L404.545 393.203" stroke="#FE7D33" stroke-width="3" stroke-linecap="round"/>
<path opacity="0.41" d="M343.294 472.538L456.557 327.567" stroke="#FE7D33" stroke-width="3" stroke-linecap="round"/>
<path opacity="0.69" d="M469.216 323.098L330.636 477.006" stroke="#FE7D33" stroke-width="3" stroke-linecap="round"/>
<path opacity="0.86" d="M548.903 256.186L250.948 543.919" stroke="#FE7D33" stroke-width="3" stroke-linecap="round"/>
<path opacity="0.76" d="M449.715 358.274L350.136 441.831" stroke="#FE7D33" stroke-width="3" stroke-linecap="round"/>
<path opacity="0.82" d="M184.249 556.751L615.602 243.354" stroke="#FE7D33" stroke-width="3" stroke-linecap="round"/>
<path opacity="0.67" d="M391.518 405.307L408.334 394.799" stroke="#FE7D33" stroke-width="3" stroke-linecap="round"/>
<path opacity="0.57" d="M745.224 216.455L54.6291 583.651" stroke="#FE7D33" stroke-width="3" stroke-linecap="round"/>
<path opacity="0.1" d="M730.521 252.862L69.3319 547.242" stroke="#FE7D33" stroke-width="3" stroke-linecap="round"/>
<path opacity="0.84" d="M298.479 436.977L501.374 363.129" stroke="#FE7D33" stroke-width="3" stroke-linecap="round"/>
<path opacity="0.42" d="M732.963 304.556L66.8894 495.549" stroke="#FE7D33" stroke-width="3" stroke-linecap="round"/>
<path opacity="0.99" d="M600.887 357.337L198.963 442.768" stroke="#FE7D33" stroke-width="3" stroke-linecap="round"/>
<path opacity="0.14" d="M374.289 403.655L425.562 396.449" stroke="#FE7D33" stroke-width="3" stroke-linecap="round"/>
<path opacity="0.68" d="M187.283 414.922L612.569 385.183" stroke="#FE7D33" stroke-width="3" stroke-linecap="round"/>
<path opacity="0.29" d="M266.63 400.052L533.221 400.052" stroke="#FE7D33" stroke-width="3" stroke-linecap="round"/>
<path opacity="0.76" d="M435.641 402.55L364.21 397.555" stroke="#FE7D33" stroke-width="3" stroke-linecap="round"/>
<path opacity="0.46" d="M711.375 443.824L88.4744 356.281" stroke="#FE7D33" stroke-width="3" stroke-linecap="round"/>
<path opacity="0.55" d="M763.059 477.238L36.7952 322.866" stroke="#FE7D33" stroke-width="3" stroke-linecap="round"/>
<path opacity="0.95" d="M570.944 449.091L228.907 351.014" stroke="#FE7D33" stroke-width="3" stroke-linecap="round"/>
<path opacity="0.51" d="M515.866 442.251L283.986 357.853" stroke="#FE7D33" stroke-width="3" stroke-linecap="round"/>
<path opacity="0.47" d="M726.495 545.45L73.3575 254.655" stroke="#FE7D33" stroke-width="3" stroke-linecap="round"/>
<path opacity="0.17" d="M414.516 407.81L385.336 392.295" stroke="#FE7D33" stroke-width="3" stroke-linecap="round"/>
<path opacity="0.21" d="M486.342 454.051L313.511 346.054" stroke="#FE7D33" stroke-width="3" stroke-linecap="round"/>
<path opacity="0.97" d="M618.276 558.693L181.576 241.411" stroke="#FE7D33" stroke-width="3" stroke-linecap="round"/>
<path opacity="0.2" d="M272.077 292.774L527.774 507.33" stroke="#FE7D33" stroke-width="3" stroke-linecap="round"/>
<path opacity="0.27" d="M556.828 551.571L243.024 248.534" stroke="#FE7D33" stroke-width="3" stroke-linecap="round"/>
<path opacity="0.8" d="M347.222 341.518L452.631 458.586" stroke="#FE7D33" stroke-width="3" stroke-linecap="round"/>
<path opacity="0.36" d="M457.235 473.405L342.616 326.699" stroke="#FE7D33" stroke-width="3" stroke-linecap="round"/>
<path opacity="0.67" d="M493.868 539.328L305.983 260.777" stroke="#FE7D33" stroke-width="3" stroke-linecap="round"/>
<path opacity="0.79" d="M228.349 102.873L571.502 697.231" stroke="#FE7D33" stroke-width="3" stroke-linecap="round"/>
<path opacity="0.53" d="M475.985 555.997L323.867 244.108" stroke="#FE7D33" stroke-width="3" stroke-linecap="round"/>
<path opacity="0.32" d="M340.294 252.46L459.557 547.645" stroke="#FE7D33" stroke-width="3" stroke-linecap="round"/>
<path opacity="0.11" d="M472.265 622.688L327.587 177.416" stroke="#FE7D33" stroke-width="3" stroke-linecap="round"/>
<path opacity="0.62" d="M463.754 656.052L336.098 144.052" stroke="#FE7D33" stroke-width="3" stroke-linecap="round"/>
<path opacity="0.31" d="M415.134 486.301L384.718 313.805" stroke="#FE7D33" stroke-width="3" stroke-linecap="round"/>
<path opacity="0.84" d="M441.552 796.104L358.298 4" stroke="#FE7D33" stroke-width="3" stroke-linecap="round"/>
<path opacity="0.67" d="M390.623 133.624L409.23 666.48" stroke="#FE7D33" stroke-width="3" stroke-linecap="round"/>
<path opacity="0.09" d="M403.097 309.224L396.754 490.88" stroke="#FE7D33" stroke-width="3" stroke-linecap="round"/>
<path opacity="0.46" d="M409.828 305.832L390.022 494.272" stroke="#FE7D33" stroke-width="3" stroke-linecap="round"/>
<path opacity="0.23" d="M450.331 114.187L349.52 685.918" stroke="#FE7D33" stroke-width="3" stroke-linecap="round"/>
<path opacity="0.45" d="M478.945 83.1259L320.907 716.979" stroke="#FE7D33" stroke-width="3" stroke-linecap="round"/>
<path opacity="0.38" d="M389.714 431.483L410.139 368.621" stroke="#FE7D33" stroke-width="3" stroke-linecap="round"/>
<path opacity="0.72" d="M393.942 414.863L405.91 385.242" stroke="#FE7D33" stroke-width="3" stroke-linecap="round"/>
<path opacity="0.18" d="M217.626 773.825L582.228 26.2803" stroke="#FE7D33" stroke-width="3" stroke-linecap="round"/>
<path opacity="0.12" d="M533.496 168.7L266.354 631.403" stroke="#FE7D33" stroke-width="3" stroke-linecap="round"/>
<path opacity="0.82" d="M237.605 640.702L562.246 159.403" stroke="#FE7D33" stroke-width="3" stroke-linecap="round"/>
<path opacity="0.98" d="M563.038 191.278L236.813 608.826" stroke="#FE7D33" stroke-width="3" stroke-linecap="round"/>
<path opacity="0.27" d="M240.338 577.292L559.513 222.813" stroke="#FE7D33" stroke-width="3" stroke-linecap="round"/>
<path opacity="0.47" d="M648.75 159.765L151.101 640.34" stroke="#FE7D33" stroke-width="3" stroke-linecap="round"/>
<path opacity="0.85" d="M286.424 495.292L513.429 304.812" stroke="#FE7D33" stroke-width="3" stroke-linecap="round"/>
<path opacity="0.91" d="M473.006 346.957L326.845 453.149" stroke="#FE7D33" stroke-width="3" stroke-linecap="round"/>
<path opacity="0.82" d="M165.903 546.286L633.949 253.819" stroke="#FE7D33" stroke-width="3" stroke-linecap="round"/>
<path opacity="0.36" d="M530.263 330.751L269.588 469.354" stroke="#FE7D33" stroke-width="3" stroke-linecap="round"/>
<path opacity="0.34" d="M564.469 326.793L235.384 473.311" stroke="#FE7D33" stroke-width="3" stroke-linecap="round"/>
<path opacity="0.64" d="M48.999 527.779L750.851 272.326" stroke="#FE7D33" stroke-width="3" stroke-linecap="round"/>
<path opacity="0.31" d="M517.469 366.347L282.384 433.757" stroke="#FE7D33" stroke-width="3" stroke-linecap="round"/>
<path opacity="0.41" d="M599.272 357.68L200.581 442.424" stroke="#FE7D33" stroke-width="3" stroke-linecap="round"/>
<path d="M93.1719 412.281C93.1719 410.531 93.7656 409.062 94.9531 407.875C96.2031 406.625 97.7031 406 99.4531 406H113.797L111.359 399.062C110.359 396.5 109.359 394.094 108.359 391.844C107.422 389.531 106.328 387.438 105.078 385.562C103.953 383.688 102.672 382.688 101.234 382.562C99.7344 382.688 98.3906 383.688 97.2031 385.562C96.0156 387.438 94.9219 389.531 93.9219 391.844C92.9844 394.094 92.0156 396.5 91.0156 399.062L82.1094 423.438C81.4844 424.75 80.6719 425.844 79.6719 426.719C78.7344 427.531 77.2969 427.938 75.3594 427.938C73.5469 427.938 72.0469 427.312 70.8594 426.062C69.7344 424.812 69.2344 423.312 69.3594 421.562C69.4219 420.75 69.6094 420 69.9219 419.312L80.2344 392.688C83.1094 385.688 85.9844 380.031 88.8594 375.719C91.6719 371.469 95.7969 369.312 101.234 369.25C106.609 369.312 110.703 371.469 113.516 375.719C116.391 379.906 119.266 385.562 122.141 392.688L132.453 419.312C132.766 420 132.953 420.75 133.016 421.562C133.141 423.312 132.609 424.812 131.422 426.062C130.297 427.312 128.828 427.938 127.016 427.938C124.953 427.938 123.422 427.531 122.422 426.719C121.484 425.844 120.703 424.75 120.078 423.438L118.297 418.562H99.4531C97.7031 418.562 96.2344 417.938 95.0469 416.688C93.7969 415.5 93.1719 414.031 93.1719 412.281ZM203.047 377.781C203.047 379.531 202.422 381 201.172 382.188C199.984 383.438 198.516 384.062 196.766 384.062H159.266C158.078 384.125 157.078 384.406 156.266 384.906C155.516 385.344 154.953 385.875 154.578 386.5C154.203 387.062 154.016 387.656 154.016 388.281C154.016 388.906 154.203 389.531 154.578 390.156C154.953 390.719 155.516 391.25 156.266 391.75C157.078 392.188 158.078 392.438 159.266 392.5H185.891C190.266 392.625 193.859 393.656 196.672 395.594C199.547 397.469 201.578 399.656 202.766 402.156C204.016 404.594 204.641 407.094 204.641 409.656C204.641 412.156 204.016 414.656 202.766 417.156C201.516 419.594 199.484 421.781 196.672 423.719C193.859 425.594 190.266 426.531 185.891 426.531H185.328C184.953 426.594 184.578 426.625 184.203 426.625H148.766C147.016 426.625 145.516 426.031 144.266 424.844C143.078 423.594 142.484 422.094 142.484 420.344C142.484 418.594 143.109 417.125 144.359 415.938C145.547 414.688 147.016 414.062 148.766 414.062H186.453C187.641 414.125 188.609 413.906 189.359 413.406C190.172 412.906 190.766 412.344 191.141 411.719C191.516 411.031 191.703 410.344 191.703 409.656C191.703 409.219 191.516 408.625 191.141 407.875C190.766 407.062 190.172 406.406 189.359 405.906C188.609 405.406 187.641 405.125 186.453 405.062H159.828C155.453 404.938 151.828 403.938 148.953 402.062C146.141 400.188 144.109 398.062 142.859 395.688C141.672 393.25 141.078 390.781 141.078 388.281C141.078 385.844 141.703 383.438 142.953 381.062C144.203 378.625 146.234 376.469 149.047 374.594C151.859 372.719 155.453 371.719 159.828 371.594H160.391C160.766 371.531 161.141 371.5 161.516 371.5H196.766C198.516 371.5 199.984 372.125 201.172 373.375C202.422 374.562 203.047 376.031 203.047 377.781ZM213.359 377.781C213.359 376.031 213.953 374.562 215.141 373.375C216.391 372.125 217.891 371.5 219.641 371.5H274.203C275.953 371.5 277.453 372.094 278.703 373.281C279.891 374.531 280.484 376.031 280.484 377.781C280.484 379.531 279.859 381.031 278.609 382.281C277.422 383.469 275.953 384.062 274.203 384.062H253.297V422.031C252.922 425.781 250.859 427.812 247.109 428.125C245.359 428.125 243.828 427.562 242.516 426.438C241.266 425.25 240.641 423.781 240.641 422.031V384.062H219.641C217.891 384.062 216.422 383.438 215.234 382.188C213.984 381 213.359 379.531 213.359 377.781ZM302.984 422.031C302.609 425.781 300.547 427.812 296.797 428.125C295.047 428.125 293.516 427.562 292.203 426.438C290.953 425.25 290.328 423.781 290.328 422.031V377.594C290.391 375.844 291.047 374.406 292.297 373.281C293.547 372.094 295.047 371.5 296.797 371.5H301.391H312.922H336.078C336.453 371.5 336.828 371.531 337.203 371.594H337.766C342.141 371.719 345.734 372.719 348.547 374.594C351.359 376.469 353.391 378.625 354.641 381.062C355.891 383.438 356.516 385.844 356.516 388.281C356.516 390.781 355.891 393.25 354.641 395.688C353.453 398.062 351.422 400.188 348.547 402.062C345.734 403.938 342.141 404.938 337.766 405.062H321.266C321.766 408.188 322.797 410.5 324.359 412C325.859 413.5 327.766 414.25 330.078 414.25H350.328C352.078 414.312 353.516 414.969 354.641 416.219C355.828 417.469 356.422 418.969 356.422 420.719C356.359 422.406 355.734 423.844 354.547 425.031C353.422 426.156 352.016 426.75 350.328 426.812H328.391C323.766 426.875 319.578 425.062 315.828 421.375C312.078 417.688 309.797 413.312 308.984 408.25C307.859 402.625 307.297 399.469 307.297 398.781C307.297 397.031 307.891 395.562 309.078 394.375C310.328 393.125 311.828 392.5 313.578 392.5H338.328C339.516 392.438 340.484 392.188 341.234 391.75C342.047 391.25 342.641 390.719 343.016 390.156C343.391 389.531 343.578 388.906 343.578 388.281C343.578 387.656 343.391 387.062 343.016 386.5C342.641 385.875 342.047 385.344 341.234 384.906C340.484 384.406 339.516 384.125 338.328 384.062H312.922H305.422C303.797 384.125 302.984 384.938 302.984 386.5V422.031ZM416.984 371.5C420.172 371.562 423.016 372.562 425.516 374.5C428.016 376.438 430.016 378.75 431.516 381.438C433.078 384.125 434.234 386.969 434.984 389.969C435.734 392.969 436.109 396.031 436.109 399.156C436.109 403.281 435.453 407.344 434.141 411.344C432.891 415.281 430.797 418.781 427.859 421.844C424.984 424.906 421.359 426.562 416.984 426.812H384.266C379.891 426.625 376.234 425 373.297 421.938C370.359 418.875 368.266 415.344 367.016 411.344C365.828 407.344 365.234 403.281 365.234 399.156C365.234 395.031 365.859 391 367.109 387.062C368.359 383.062 370.422 379.531 373.297 376.469C376.234 373.344 379.891 371.688 384.266 371.5H386.047H415.203H416.984ZM413.797 414.25C416.172 414.125 418.141 413.25 419.703 411.625C421.328 409.938 422.484 408 423.172 405.812C423.859 403.625 424.203 401.406 424.203 399.156C424.203 396.906 423.828 394.719 423.078 392.594C422.391 390.406 421.266 388.469 419.703 386.781C418.141 385.094 416.172 384.188 413.797 384.062H387.172C384.797 384.188 382.828 385.094 381.266 386.781C379.703 388.469 378.547 390.406 377.797 392.594C377.109 394.719 376.766 396.906 376.766 399.156C376.766 401.406 377.109 403.625 377.797 405.812C378.484 408 379.609 409.938 381.172 411.625C382.797 413.25 384.797 414.125 387.172 414.25H413.797ZM476.234 368.969C479.484 368.969 482.672 369.344 485.797 370.094C488.984 370.844 492.016 371.969 494.891 373.469C497.766 374.906 500.297 376.844 502.484 379.281C504.734 381.719 505.953 384.625 506.141 388V391.938V421.844C505.766 425.594 503.703 427.625 499.953 427.938C498.203 427.938 496.672 427.375 495.359 426.25C494.109 425.062 493.484 423.594 493.484 421.844V390.906C493.359 388.969 492.609 387.375 491.234 386.125C489.922 384.812 488.422 383.781 486.734 383.031C485.109 382.281 483.391 381.719 481.578 381.344C479.828 380.969 478.047 380.781 476.234 380.781C474.422 380.781 472.609 380.969 470.797 381.344C469.047 381.719 467.328 382.281 465.641 383.031C464.016 383.781 462.516 384.812 461.141 386.125C459.828 387.375 459.109 388.969 458.984 390.906V421.844C458.672 425.594 456.641 427.625 452.891 427.938C451.141 427.938 449.609 427.375 448.297 426.25C447.047 425.062 446.422 423.594 446.422 421.844V391.938V388C446.609 384.625 447.797 381.719 449.984 379.281C452.172 376.844 454.703 374.906 457.578 373.469C460.453 371.969 463.453 370.844 466.578 370.094C469.766 369.344 472.984 368.969 476.234 368.969ZM539.047 412.281C539.047 410.531 539.641 409.062 540.828 407.875C542.078 406.625 543.578 406 545.328 406H559.672L557.234 399.062C556.234 396.5 555.234 394.094 554.234 391.844C553.297 389.531 552.203 387.438 550.953 385.562C549.828 383.688 548.547 382.688 547.109 382.562C545.609 382.688 544.266 383.688 543.078 385.562C541.891 387.438 540.797 389.531 539.797 391.844C538.859 394.094 537.891 396.5 536.891 399.062L527.984 423.438C527.359 424.75 526.547 425.844 525.547 426.719C524.609 427.531 523.172 427.938 521.234 427.938C519.422 427.938 517.922 427.312 516.734 426.062C515.609 424.812 515.109 423.312 515.234 421.562C515.297 420.75 515.484 420 515.797 419.312L526.109 392.688C528.984 385.688 531.859 380.031 534.734 375.719C537.547 371.469 541.672 369.312 547.109 369.25C552.484 369.312 556.578 371.469 559.391 375.719C562.266 379.906 565.141 385.562 568.016 392.688L578.328 419.312C578.641 420 578.828 420.75 578.891 421.562C579.016 423.312 578.484 424.812 577.297 426.062C576.172 427.312 574.703 427.938 572.891 427.938C570.828 427.938 569.297 427.531 568.297 426.719C567.359 425.844 566.578 424.75 565.953 423.438L564.172 418.562H545.328C543.578 418.562 542.109 417.938 540.922 416.688C539.672 415.5 539.047 414.031 539.047 412.281ZM618.172 428.969C614.922 428.969 611.703 428.594 608.516 427.844C605.391 427.094 602.391 426 599.516 424.562C596.641 423.062 594.109 421.094 591.922 418.656C589.734 416.219 588.547 413.312 588.359 409.938V406V376.094C588.359 374.344 588.984 372.906 590.234 371.781C591.547 370.594 593.078 370 594.828 370C598.578 370.312 600.609 372.344 600.922 376.094V407.031C601.047 408.969 601.766 410.594 603.078 411.906C604.453 413.156 605.953 414.156 607.578 414.906C609.266 415.656 610.984 416.219 612.734 416.594C614.547 416.969 616.359 417.156 618.172 417.156C619.984 417.156 621.766 416.969 623.516 416.594C625.328 416.219 627.047 415.656 628.672 414.906C630.359 414.156 631.859 413.156 633.172 411.906C634.547 410.594 635.297 408.969 635.422 407.031V376.094C635.422 374.344 636.047 372.906 637.297 371.781C638.609 370.594 640.141 370 641.891 370C645.641 370.312 647.703 372.344 648.078 376.094V406V409.938C647.891 413.312 646.672 416.219 644.422 418.656C642.234 421.094 639.703 423.062 636.828 424.562C633.953 426 630.922 427.094 627.734 427.844C624.609 428.594 621.422 428.969 618.172 428.969ZM658.766 377.781C658.766 376.031 659.359 374.562 660.547 373.375C661.797 372.125 663.297 371.5 665.047 371.5H719.609C721.359 371.5 722.859 372.094 724.109 373.281C725.297 374.531 725.891 376.031 725.891 377.781C725.891 379.531 725.266 381.031 724.016 382.281C722.828 383.469 721.359 384.062 719.609 384.062H698.703V422.031C698.328 425.781 696.266 427.812 692.516 428.125C690.766 428.125 689.234 427.562 687.922 426.438C686.672 425.25 686.047 423.781 686.047 422.031V384.062H665.047C663.297 384.062 661.828 383.438 660.641 382.188C659.391 381 658.766 379.531 658.766 377.781Z" fill="black"/>
</svg>
