<svg width="800" height="800" viewBox="0 0 800 800" fill="none" xmlns="http://www.w3.org/2000/svg">
<path opacity="0.32" d="M641.179 400.052H158.672" stroke="#2D6070" stroke-width="3" stroke-linecap="round"/>
<path opacity="0.3" d="M541.687 409.965L258.163 390.139" stroke="#2D6070" stroke-width="3" stroke-linecap="round"/>
<path opacity="0.84" d="M588.106 426.499L211.747 373.605" stroke="#2D6070" stroke-width="3" stroke-linecap="round"/>
<path opacity="0.8" d="M540.007 429.827L259.846 370.277" stroke="#2D6070" stroke-width="3" stroke-linecap="round"/>
<path opacity="0.93" d="M6 287.096L793.852 513.009" stroke="#2D6070" stroke-width="3" stroke-linecap="round"/>
<path opacity="0.39" d="M286.574 358.796L513.279 441.31" stroke="#2D6070" stroke-width="3" stroke-linecap="round"/>
<path opacity="0.1" d="M359.168 381.905L440.684 418.199" stroke="#2D6070" stroke-width="3" stroke-linecap="round"/>
<path opacity="0.3" d="M70.1914 224.729L729.661 575.375" stroke="#2D6070" stroke-width="3" stroke-linecap="round"/>
<path opacity="0.17" d="M674.588 571.68L125.265 228.425" stroke="#2D6070" stroke-width="3" stroke-linecap="round"/>
<path opacity="0.5" d="M113.843 192.201L686.009 607.904" stroke="#2D6070" stroke-width="3" stroke-linecap="round"/>
<path opacity="0.51" d="M170.812 207.802L629.042 592.303" stroke="#2D6070" stroke-width="3" stroke-linecap="round"/>
<path opacity="0.18" d="M470.453 468.159L329.399 331.945" stroke="#2D6070" stroke-width="3" stroke-linecap="round"/>
<path opacity="0.9" d="M254.712 238.776L545.139 561.328" stroke="#2D6070" stroke-width="3" stroke-linecap="round"/>
<path opacity="0.75" d="M511.493 542.853L288.358 257.253" stroke="#2D6070" stroke-width="3" stroke-linecap="round"/>
<path opacity="0.93" d="M217.277 129.265L582.574 670.84" stroke="#2D6070" stroke-width="3" stroke-linecap="round"/>
<path opacity="0.71" d="M311.521 246.931L488.33 553.173" stroke="#2D6070" stroke-width="3" stroke-linecap="round"/>
<path opacity="0.42" d="M294.167 183.215L505.684 616.89" stroke="#2D6070" stroke-width="3" stroke-linecap="round"/>
<path opacity="0.73" d="M505.983 662.552L293.869 137.553" stroke="#2D6070" stroke-width="3" stroke-linecap="round"/>
<path opacity="0.6" d="M464.605 599.115L335.246 200.99" stroke="#2D6070" stroke-width="3" stroke-linecap="round"/>
<path opacity="0.54" d="M309.581 37.6978L490.271 762.407" stroke="#2D6070" stroke-width="3" stroke-linecap="round"/>
<path opacity="0.62" d="M350.095 117.441L449.759 682.663" stroke="#2D6070" stroke-width="3" stroke-linecap="round"/>
<path opacity="0.74" d="M358.875 9.47803L440.977 790.627" stroke="#2D6070" stroke-width="3" stroke-linecap="round"/>
<path opacity="0.76" d="M401.175 435.833L398.676 364.272" stroke="#2D6070" stroke-width="3" stroke-linecap="round"/>
<path opacity="0.94" d="M389.815 689.6L410.037 110.504" stroke="#2D6070" stroke-width="3" stroke-linecap="round"/>
<path opacity="0.19" d="M424.625 165.051L375.226 635.055" stroke="#2D6070" stroke-width="3" stroke-linecap="round"/>
<path opacity="0.47" d="M361.189 619.74L438.663 180.364" stroke="#2D6070" stroke-width="3" stroke-linecap="round"/>
<path opacity="0.6" d="M337.963 648.57L461.888 151.535" stroke="#2D6070" stroke-width="3" stroke-linecap="round"/>
<path opacity="0.48" d="M319.417 647.833L480.435 152.271" stroke="#2D6070" stroke-width="3" stroke-linecap="round"/>
<path opacity="0.61" d="M345.041 535.898L454.812 264.206" stroke="#2D6070" stroke-width="3" stroke-linecap="round"/>
<path opacity="0.43" d="M297.547 609.959L502.304 190.146" stroke="#2D6070" stroke-width="3" stroke-linecap="round"/>
<path opacity="0.39" d="M381.748 431.536L418.102 368.57" stroke="#2D6070" stroke-width="3" stroke-linecap="round"/>
<path opacity="0.99" d="M395.305 406.902L404.545 393.203" stroke="#2D6070" stroke-width="3" stroke-linecap="round"/>
<path opacity="0.41" d="M343.294 472.538L456.557 327.567" stroke="#2D6070" stroke-width="3" stroke-linecap="round"/>
<path opacity="0.69" d="M469.216 323.098L330.636 477.006" stroke="#2D6070" stroke-width="3" stroke-linecap="round"/>
<path opacity="0.86" d="M548.903 256.186L250.948 543.919" stroke="#2D6070" stroke-width="3" stroke-linecap="round"/>
<path opacity="0.76" d="M449.715 358.274L350.136 441.831" stroke="#2D6070" stroke-width="3" stroke-linecap="round"/>
<path opacity="0.82" d="M184.249 556.751L615.602 243.354" stroke="#2D6070" stroke-width="3" stroke-linecap="round"/>
<path opacity="0.67" d="M391.518 405.307L408.334 394.799" stroke="#2D6070" stroke-width="3" stroke-linecap="round"/>
<path opacity="0.57" d="M745.224 216.455L54.6291 583.651" stroke="#2D6070" stroke-width="3" stroke-linecap="round"/>
<path opacity="0.1" d="M730.521 252.862L69.3319 547.242" stroke="#2D6070" stroke-width="3" stroke-linecap="round"/>
<path opacity="0.84" d="M298.479 436.977L501.374 363.129" stroke="#2D6070" stroke-width="3" stroke-linecap="round"/>
<path opacity="0.42" d="M732.963 304.556L66.8894 495.549" stroke="#2D6070" stroke-width="3" stroke-linecap="round"/>
<path opacity="0.99" d="M600.887 357.337L198.963 442.768" stroke="#2D6070" stroke-width="3" stroke-linecap="round"/>
<path opacity="0.14" d="M374.289 403.655L425.562 396.449" stroke="#2D6070" stroke-width="3" stroke-linecap="round"/>
<path opacity="0.68" d="M187.283 414.922L612.569 385.183" stroke="#2D6070" stroke-width="3" stroke-linecap="round"/>
<path opacity="0.29" d="M266.63 400.052L533.221 400.052" stroke="#2D6070" stroke-width="3" stroke-linecap="round"/>
<path opacity="0.76" d="M435.641 402.55L364.21 397.555" stroke="#2D6070" stroke-width="3" stroke-linecap="round"/>
<path opacity="0.46" d="M711.375 443.824L88.4744 356.281" stroke="#2D6070" stroke-width="3" stroke-linecap="round"/>
<path opacity="0.55" d="M763.059 477.238L36.7952 322.866" stroke="#2D6070" stroke-width="3" stroke-linecap="round"/>
<path opacity="0.95" d="M570.944 449.091L228.907 351.014" stroke="#2D6070" stroke-width="3" stroke-linecap="round"/>
<path opacity="0.51" d="M515.866 442.251L283.986 357.853" stroke="#2D6070" stroke-width="3" stroke-linecap="round"/>
<path opacity="0.47" d="M726.495 545.45L73.3575 254.655" stroke="#2D6070" stroke-width="3" stroke-linecap="round"/>
<path opacity="0.17" d="M414.516 407.81L385.336 392.295" stroke="#2D6070" stroke-width="3" stroke-linecap="round"/>
<path opacity="0.21" d="M486.342 454.051L313.511 346.054" stroke="#2D6070" stroke-width="3" stroke-linecap="round"/>
<path opacity="0.97" d="M618.276 558.693L181.576 241.411" stroke="#2D6070" stroke-width="3" stroke-linecap="round"/>
<path opacity="0.2" d="M272.077 292.774L527.774 507.33" stroke="#2D6070" stroke-width="3" stroke-linecap="round"/>
<path opacity="0.27" d="M556.828 551.571L243.024 248.534" stroke="#2D6070" stroke-width="3" stroke-linecap="round"/>
<path opacity="0.8" d="M347.222 341.518L452.631 458.586" stroke="#2D6070" stroke-width="3" stroke-linecap="round"/>
<path opacity="0.36" d="M457.235 473.405L342.616 326.699" stroke="#2D6070" stroke-width="3" stroke-linecap="round"/>
<path opacity="0.67" d="M493.868 539.328L305.983 260.777" stroke="#2D6070" stroke-width="3" stroke-linecap="round"/>
<path opacity="0.79" d="M228.349 102.873L571.502 697.231" stroke="#2D6070" stroke-width="3" stroke-linecap="round"/>
<path opacity="0.53" d="M475.985 555.997L323.867 244.108" stroke="#2D6070" stroke-width="3" stroke-linecap="round"/>
<path opacity="0.32" d="M340.294 252.46L459.557 547.645" stroke="#2D6070" stroke-width="3" stroke-linecap="round"/>
<path opacity="0.11" d="M472.265 622.688L327.587 177.416" stroke="#2D6070" stroke-width="3" stroke-linecap="round"/>
<path opacity="0.62" d="M463.754 656.052L336.098 144.052" stroke="#2D6070" stroke-width="3" stroke-linecap="round"/>
<path opacity="0.31" d="M415.134 486.301L384.718 313.805" stroke="#2D6070" stroke-width="3" stroke-linecap="round"/>
<path opacity="0.84" d="M441.552 796.104L358.298 4" stroke="#2D6070" stroke-width="3" stroke-linecap="round"/>
<path opacity="0.67" d="M390.623 133.624L409.23 666.48" stroke="#2D6070" stroke-width="3" stroke-linecap="round"/>
<path opacity="0.09" d="M403.097 309.224L396.754 490.88" stroke="#2D6070" stroke-width="3" stroke-linecap="round"/>
<path opacity="0.46" d="M409.828 305.832L390.022 494.272" stroke="#2D6070" stroke-width="3" stroke-linecap="round"/>
<path opacity="0.23" d="M450.331 114.187L349.52 685.918" stroke="#2D6070" stroke-width="3" stroke-linecap="round"/>
<path opacity="0.45" d="M478.945 83.1259L320.907 716.979" stroke="#2D6070" stroke-width="3" stroke-linecap="round"/>
<path opacity="0.38" d="M389.714 431.483L410.139 368.621" stroke="#2D6070" stroke-width="3" stroke-linecap="round"/>
<path opacity="0.72" d="M393.942 414.863L405.91 385.242" stroke="#2D6070" stroke-width="3" stroke-linecap="round"/>
<path opacity="0.18" d="M217.626 773.825L582.228 26.2803" stroke="#2D6070" stroke-width="3" stroke-linecap="round"/>
<path opacity="0.12" d="M533.496 168.7L266.354 631.403" stroke="#2D6070" stroke-width="3" stroke-linecap="round"/>
<path opacity="0.82" d="M237.605 640.702L562.246 159.403" stroke="#2D6070" stroke-width="3" stroke-linecap="round"/>
<path opacity="0.98" d="M563.038 191.278L236.813 608.826" stroke="#2D6070" stroke-width="3" stroke-linecap="round"/>
<path opacity="0.27" d="M240.338 577.292L559.513 222.813" stroke="#2D6070" stroke-width="3" stroke-linecap="round"/>
<path opacity="0.47" d="M648.75 159.765L151.101 640.34" stroke="#2D6070" stroke-width="3" stroke-linecap="round"/>
<path opacity="0.85" d="M286.424 495.292L513.429 304.812" stroke="#2D6070" stroke-width="3" stroke-linecap="round"/>
<path opacity="0.91" d="M473.006 346.957L326.845 453.149" stroke="#2D6070" stroke-width="3" stroke-linecap="round"/>
<path opacity="0.82" d="M165.903 546.286L633.949 253.819" stroke="#2D6070" stroke-width="3" stroke-linecap="round"/>
<path opacity="0.36" d="M530.263 330.751L269.588 469.354" stroke="#2D6070" stroke-width="3" stroke-linecap="round"/>
<path opacity="0.34" d="M564.469 326.793L235.384 473.311" stroke="#2D6070" stroke-width="3" stroke-linecap="round"/>
<path opacity="0.64" d="M48.999 527.779L750.851 272.326" stroke="#2D6070" stroke-width="3" stroke-linecap="round"/>
<path opacity="0.31" d="M517.469 366.347L282.384 433.757" stroke="#2D6070" stroke-width="3" stroke-linecap="round"/>
<path opacity="0.41" d="M599.272 357.68L200.581 442.424" stroke="#2D6070" stroke-width="3" stroke-linecap="round"/>
<path d="M92.1719 413.281C92.1719 411.531 92.7656 410.062 93.9531 408.875C95.2031 407.625 96.7031 407 98.4531 407H112.797L110.359 400.062C109.359 397.5 108.359 395.094 107.359 392.844C106.422 390.531 105.328 388.438 104.078 386.562C102.953 384.688 101.672 383.688 100.234 383.562C98.7344 383.688 97.3906 384.688 96.2031 386.562C95.0156 388.438 93.9219 390.531 92.9219 392.844C91.9844 395.094 91.0156 397.5 90.0156 400.062L81.1094 424.438C80.4844 425.75 79.6719 426.844 78.6719 427.719C77.7344 428.531 76.2969 428.938 74.3594 428.938C72.5469 428.938 71.0469 428.312 69.8594 427.062C68.7344 425.812 68.2344 424.312 68.3594 422.562C68.4219 421.75 68.6094 421 68.9219 420.312L79.2344 393.688C82.1094 386.688 84.9844 381.031 87.8594 376.719C90.6719 372.469 94.7969 370.312 100.234 370.25C105.609 370.312 109.703 372.469 112.516 376.719C115.391 380.906 118.266 386.562 121.141 393.688L131.453 420.312C131.766 421 131.953 421.75 132.016 422.562C132.141 424.312 131.609 425.812 130.422 427.062C129.297 428.312 127.828 428.938 126.016 428.938C123.953 428.938 122.422 428.531 121.422 427.719C120.484 426.844 119.703 425.75 119.078 424.438L117.297 419.562H98.4531C96.7031 419.562 95.2344 418.938 94.0469 417.688C92.7969 416.5 92.1719 415.031 92.1719 413.281ZM202.047 378.781C202.047 380.531 201.422 382 200.172 383.188C198.984 384.438 197.516 385.062 195.766 385.062H158.266C157.078 385.125 156.078 385.406 155.266 385.906C154.516 386.344 153.953 386.875 153.578 387.5C153.203 388.062 153.016 388.656 153.016 389.281C153.016 389.906 153.203 390.531 153.578 391.156C153.953 391.719 154.516 392.25 155.266 392.75C156.078 393.188 157.078 393.438 158.266 393.5H184.891C189.266 393.625 192.859 394.656 195.672 396.594C198.547 398.469 200.578 400.656 201.766 403.156C203.016 405.594 203.641 408.094 203.641 410.656C203.641 413.156 203.016 415.656 201.766 418.156C200.516 420.594 198.484 422.781 195.672 424.719C192.859 426.594 189.266 427.531 184.891 427.531H184.328C183.953 427.594 183.578 427.625 183.203 427.625H147.766C146.016 427.625 144.516 427.031 143.266 425.844C142.078 424.594 141.484 423.094 141.484 421.344C141.484 419.594 142.109 418.125 143.359 416.938C144.547 415.688 146.016 415.062 147.766 415.062H185.453C186.641 415.125 187.609 414.906 188.359 414.406C189.172 413.906 189.766 413.344 190.141 412.719C190.516 412.031 190.703 411.344 190.703 410.656C190.703 410.219 190.516 409.625 190.141 408.875C189.766 408.062 189.172 407.406 188.359 406.906C187.609 406.406 186.641 406.125 185.453 406.062H158.828C154.453 405.938 150.828 404.938 147.953 403.062C145.141 401.188 143.109 399.062 141.859 396.688C140.672 394.25 140.078 391.781 140.078 389.281C140.078 386.844 140.703 384.438 141.953 382.062C143.203 379.625 145.234 377.469 148.047 375.594C150.859 373.719 154.453 372.719 158.828 372.594H159.391C159.766 372.531 160.141 372.5 160.516 372.5H195.766C197.516 372.5 198.984 373.125 200.172 374.375C201.422 375.562 202.047 377.031 202.047 378.781ZM212.359 378.781C212.359 377.031 212.953 375.562 214.141 374.375C215.391 373.125 216.891 372.5 218.641 372.5H273.203C274.953 372.5 276.453 373.094 277.703 374.281C278.891 375.531 279.484 377.031 279.484 378.781C279.484 380.531 278.859 382.031 277.609 383.281C276.422 384.469 274.953 385.062 273.203 385.062H252.297V423.031C251.922 426.781 249.859 428.812 246.109 429.125C244.359 429.125 242.828 428.562 241.516 427.438C240.266 426.25 239.641 424.781 239.641 423.031V385.062H218.641C216.891 385.062 215.422 384.438 214.234 383.188C212.984 382 212.359 380.531 212.359 378.781ZM301.984 423.031C301.609 426.781 299.547 428.812 295.797 429.125C294.047 429.125 292.516 428.562 291.203 427.438C289.953 426.25 289.328 424.781 289.328 423.031V378.594C289.391 376.844 290.047 375.406 291.297 374.281C292.547 373.094 294.047 372.5 295.797 372.5H300.391H311.922H335.078C335.453 372.5 335.828 372.531 336.203 372.594H336.766C341.141 372.719 344.734 373.719 347.547 375.594C350.359 377.469 352.391 379.625 353.641 382.062C354.891 384.438 355.516 386.844 355.516 389.281C355.516 391.781 354.891 394.25 353.641 396.688C352.453 399.062 350.422 401.188 347.547 403.062C344.734 404.938 341.141 405.938 336.766 406.062H320.266C320.766 409.188 321.797 411.5 323.359 413C324.859 414.5 326.766 415.25 329.078 415.25H349.328C351.078 415.312 352.516 415.969 353.641 417.219C354.828 418.469 355.422 419.969 355.422 421.719C355.359 423.406 354.734 424.844 353.547 426.031C352.422 427.156 351.016 427.75 349.328 427.812H327.391C322.766 427.875 318.578 426.062 314.828 422.375C311.078 418.688 308.797 414.312 307.984 409.25C306.859 403.625 306.297 400.469 306.297 399.781C306.297 398.031 306.891 396.562 308.078 395.375C309.328 394.125 310.828 393.5 312.578 393.5H337.328C338.516 393.438 339.484 393.188 340.234 392.75C341.047 392.25 341.641 391.719 342.016 391.156C342.391 390.531 342.578 389.906 342.578 389.281C342.578 388.656 342.391 388.062 342.016 387.5C341.641 386.875 341.047 386.344 340.234 385.906C339.484 385.406 338.516 385.125 337.328 385.062H311.922H304.422C302.797 385.125 301.984 385.938 301.984 387.5V423.031ZM415.984 372.5C419.172 372.562 422.016 373.562 424.516 375.5C427.016 377.438 429.016 379.75 430.516 382.438C432.078 385.125 433.234 387.969 433.984 390.969C434.734 393.969 435.109 397.031 435.109 400.156C435.109 404.281 434.453 408.344 433.141 412.344C431.891 416.281 429.797 419.781 426.859 422.844C423.984 425.906 420.359 427.562 415.984 427.812H383.266C378.891 427.625 375.234 426 372.297 422.938C369.359 419.875 367.266 416.344 366.016 412.344C364.828 408.344 364.234 404.281 364.234 400.156C364.234 396.031 364.859 392 366.109 388.062C367.359 384.062 369.422 380.531 372.297 377.469C375.234 374.344 378.891 372.688 383.266 372.5H385.047H414.203H415.984ZM412.797 415.25C415.172 415.125 417.141 414.25 418.703 412.625C420.328 410.938 421.484 409 422.172 406.812C422.859 404.625 423.203 402.406 423.203 400.156C423.203 397.906 422.828 395.719 422.078 393.594C421.391 391.406 420.266 389.469 418.703 387.781C417.141 386.094 415.172 385.188 412.797 385.062H386.172C383.797 385.188 381.828 386.094 380.266 387.781C378.703 389.469 377.547 391.406 376.797 393.594C376.109 395.719 375.766 397.906 375.766 400.156C375.766 402.406 376.109 404.625 376.797 406.812C377.484 409 378.609 410.938 380.172 412.625C381.797 414.25 383.797 415.125 386.172 415.25H412.797ZM475.234 369.969C478.484 369.969 481.672 370.344 484.797 371.094C487.984 371.844 491.016 372.969 493.891 374.469C496.766 375.906 499.297 377.844 501.484 380.281C503.734 382.719 504.953 385.625 505.141 389V392.938V422.844C504.766 426.594 502.703 428.625 498.953 428.938C497.203 428.938 495.672 428.375 494.359 427.25C493.109 426.062 492.484 424.594 492.484 422.844V391.906C492.359 389.969 491.609 388.375 490.234 387.125C488.922 385.812 487.422 384.781 485.734 384.031C484.109 383.281 482.391 382.719 480.578 382.344C478.828 381.969 477.047 381.781 475.234 381.781C473.422 381.781 471.609 381.969 469.797 382.344C468.047 382.719 466.328 383.281 464.641 384.031C463.016 384.781 461.516 385.812 460.141 387.125C458.828 388.375 458.109 389.969 457.984 391.906V422.844C457.672 426.594 455.641 428.625 451.891 428.938C450.141 428.938 448.609 428.375 447.297 427.25C446.047 426.062 445.422 424.594 445.422 422.844V392.938V389C445.609 385.625 446.797 382.719 448.984 380.281C451.172 377.844 453.703 375.906 456.578 374.469C459.453 372.969 462.453 371.844 465.578 371.094C468.766 370.344 471.984 369.969 475.234 369.969ZM538.047 413.281C538.047 411.531 538.641 410.062 539.828 408.875C541.078 407.625 542.578 407 544.328 407H558.672L556.234 400.062C555.234 397.5 554.234 395.094 553.234 392.844C552.297 390.531 551.203 388.438 549.953 386.562C548.828 384.688 547.547 383.688 546.109 383.562C544.609 383.688 543.266 384.688 542.078 386.562C540.891 388.438 539.797 390.531 538.797 392.844C537.859 395.094 536.891 397.5 535.891 400.062L526.984 424.438C526.359 425.75 525.547 426.844 524.547 427.719C523.609 428.531 522.172 428.938 520.234 428.938C518.422 428.938 516.922 428.312 515.734 427.062C514.609 425.812 514.109 424.312 514.234 422.562C514.297 421.75 514.484 421 514.797 420.312L525.109 393.688C527.984 386.688 530.859 381.031 533.734 376.719C536.547 372.469 540.672 370.312 546.109 370.25C551.484 370.312 555.578 372.469 558.391 376.719C561.266 380.906 564.141 386.562 567.016 393.688L577.328 420.312C577.641 421 577.828 421.75 577.891 422.562C578.016 424.312 577.484 425.812 576.297 427.062C575.172 428.312 573.703 428.938 571.891 428.938C569.828 428.938 568.297 428.531 567.297 427.719C566.359 426.844 565.578 425.75 564.953 424.438L563.172 419.562H544.328C542.578 419.562 541.109 418.938 539.922 417.688C538.672 416.5 538.047 415.031 538.047 413.281ZM617.172 429.969C613.922 429.969 610.703 429.594 607.516 428.844C604.391 428.094 601.391 427 598.516 425.562C595.641 424.062 593.109 422.094 590.922 419.656C588.734 417.219 587.547 414.312 587.359 410.938V407V377.094C587.359 375.344 587.984 373.906 589.234 372.781C590.547 371.594 592.078 371 593.828 371C597.578 371.312 599.609 373.344 599.922 377.094V408.031C600.047 409.969 600.766 411.594 602.078 412.906C603.453 414.156 604.953 415.156 606.578 415.906C608.266 416.656 609.984 417.219 611.734 417.594C613.547 417.969 615.359 418.156 617.172 418.156C618.984 418.156 620.766 417.969 622.516 417.594C624.328 417.219 626.047 416.656 627.672 415.906C629.359 415.156 630.859 414.156 632.172 412.906C633.547 411.594 634.297 409.969 634.422 408.031V377.094C634.422 375.344 635.047 373.906 636.297 372.781C637.609 371.594 639.141 371 640.891 371C644.641 371.312 646.703 373.344 647.078 377.094V407V410.938C646.891 414.312 645.672 417.219 643.422 419.656C641.234 422.094 638.703 424.062 635.828 425.562C632.953 427 629.922 428.094 626.734 428.844C623.609 429.594 620.422 429.969 617.172 429.969ZM657.766 378.781C657.766 377.031 658.359 375.562 659.547 374.375C660.797 373.125 662.297 372.5 664.047 372.5H718.609C720.359 372.5 721.859 373.094 723.109 374.281C724.297 375.531 724.891 377.031 724.891 378.781C724.891 380.531 724.266 382.031 723.016 383.281C721.828 384.469 720.359 385.062 718.609 385.062H697.703V423.031C697.328 426.781 695.266 428.812 691.516 429.125C689.766 429.125 688.234 428.562 686.922 427.438C685.672 426.25 685.047 424.781 685.047 423.031V385.062H664.047C662.297 385.062 660.828 384.438 659.641 383.188C658.391 382 657.766 380.531 657.766 378.781Z" fill="white"/>
</svg>
