<svg width="800" height="800" viewBox="0 0 800 800" fill="none" xmlns="http://www.w3.org/2000/svg">
<path opacity="0.32" d="M641.179 400.052H158.672" stroke="#2D6070" stroke-width="3" stroke-linecap="round"/>
<path opacity="0.3" d="M541.687 409.965L258.163 390.139" stroke="#2D6070" stroke-width="3" stroke-linecap="round"/>
<path opacity="0.84" d="M588.106 426.499L211.747 373.605" stroke="#2D6070" stroke-width="3" stroke-linecap="round"/>
<path opacity="0.8" d="M540.007 429.827L259.846 370.277" stroke="#2D6070" stroke-width="3" stroke-linecap="round"/>
<path opacity="0.93" d="M6 287.096L793.852 513.009" stroke="#2D6070" stroke-width="3" stroke-linecap="round"/>
<path opacity="0.39" d="M286.574 358.796L513.279 441.31" stroke="#2D6070" stroke-width="3" stroke-linecap="round"/>
<path opacity="0.1" d="M359.168 381.905L440.684 418.199" stroke="#2D6070" stroke-width="3" stroke-linecap="round"/>
<path opacity="0.3" d="M70.1914 224.729L729.661 575.375" stroke="#2D6070" stroke-width="3" stroke-linecap="round"/>
<path opacity="0.17" d="M674.588 571.68L125.265 228.425" stroke="#2D6070" stroke-width="3" stroke-linecap="round"/>
<path opacity="0.5" d="M113.843 192.201L686.009 607.904" stroke="#2D6070" stroke-width="3" stroke-linecap="round"/>
<path opacity="0.51" d="M170.812 207.802L629.042 592.303" stroke="#2D6070" stroke-width="3" stroke-linecap="round"/>
<path opacity="0.18" d="M470.453 468.159L329.399 331.945" stroke="#2D6070" stroke-width="3" stroke-linecap="round"/>
<path opacity="0.9" d="M254.712 238.776L545.139 561.328" stroke="#2D6070" stroke-width="3" stroke-linecap="round"/>
<path opacity="0.75" d="M511.493 542.853L288.358 257.253" stroke="#2D6070" stroke-width="3" stroke-linecap="round"/>
<path opacity="0.93" d="M217.277 129.265L582.574 670.84" stroke="#2D6070" stroke-width="3" stroke-linecap="round"/>
<path opacity="0.71" d="M311.521 246.931L488.33 553.173" stroke="#2D6070" stroke-width="3" stroke-linecap="round"/>
<path opacity="0.42" d="M294.167 183.215L505.684 616.89" stroke="#2D6070" stroke-width="3" stroke-linecap="round"/>
<path opacity="0.73" d="M505.983 662.552L293.869 137.553" stroke="#2D6070" stroke-width="3" stroke-linecap="round"/>
<path opacity="0.6" d="M464.605 599.115L335.246 200.99" stroke="#2D6070" stroke-width="3" stroke-linecap="round"/>
<path opacity="0.54" d="M309.581 37.6978L490.271 762.407" stroke="#2D6070" stroke-width="3" stroke-linecap="round"/>
<path opacity="0.62" d="M350.095 117.441L449.759 682.663" stroke="#2D6070" stroke-width="3" stroke-linecap="round"/>
<path opacity="0.74" d="M358.875 9.47803L440.977 790.627" stroke="#2D6070" stroke-width="3" stroke-linecap="round"/>
<path opacity="0.76" d="M401.175 435.833L398.676 364.272" stroke="#2D6070" stroke-width="3" stroke-linecap="round"/>
<path opacity="0.94" d="M389.815 689.6L410.037 110.504" stroke="#2D6070" stroke-width="3" stroke-linecap="round"/>
<path opacity="0.19" d="M424.625 165.051L375.226 635.055" stroke="#2D6070" stroke-width="3" stroke-linecap="round"/>
<path opacity="0.47" d="M361.189 619.74L438.663 180.364" stroke="#2D6070" stroke-width="3" stroke-linecap="round"/>
<path opacity="0.6" d="M337.963 648.57L461.888 151.535" stroke="#2D6070" stroke-width="3" stroke-linecap="round"/>
<path opacity="0.48" d="M319.417 647.833L480.435 152.271" stroke="#2D6070" stroke-width="3" stroke-linecap="round"/>
<path opacity="0.61" d="M345.041 535.898L454.812 264.206" stroke="#2D6070" stroke-width="3" stroke-linecap="round"/>
<path opacity="0.43" d="M297.547 609.959L502.304 190.146" stroke="#2D6070" stroke-width="3" stroke-linecap="round"/>
<path opacity="0.39" d="M381.748 431.536L418.102 368.57" stroke="#2D6070" stroke-width="3" stroke-linecap="round"/>
<path opacity="0.99" d="M395.305 406.902L404.545 393.203" stroke="#2D6070" stroke-width="3" stroke-linecap="round"/>
<path opacity="0.41" d="M343.294 472.538L456.557 327.567" stroke="#2D6070" stroke-width="3" stroke-linecap="round"/>
<path opacity="0.69" d="M469.216 323.098L330.636 477.006" stroke="#2D6070" stroke-width="3" stroke-linecap="round"/>
<path opacity="0.86" d="M548.903 256.186L250.948 543.919" stroke="#2D6070" stroke-width="3" stroke-linecap="round"/>
<path opacity="0.76" d="M449.715 358.274L350.136 441.831" stroke="#2D6070" stroke-width="3" stroke-linecap="round"/>
<path opacity="0.82" d="M184.249 556.751L615.602 243.354" stroke="#2D6070" stroke-width="3" stroke-linecap="round"/>
<path opacity="0.67" d="M391.518 405.307L408.334 394.799" stroke="#2D6070" stroke-width="3" stroke-linecap="round"/>
<path opacity="0.57" d="M745.224 216.455L54.6291 583.651" stroke="#2D6070" stroke-width="3" stroke-linecap="round"/>
<path opacity="0.1" d="M730.521 252.862L69.3319 547.242" stroke="#2D6070" stroke-width="3" stroke-linecap="round"/>
<path opacity="0.84" d="M298.479 436.977L501.374 363.129" stroke="#2D6070" stroke-width="3" stroke-linecap="round"/>
<path opacity="0.42" d="M732.963 304.556L66.8894 495.549" stroke="#2D6070" stroke-width="3" stroke-linecap="round"/>
<path opacity="0.99" d="M600.887 357.337L198.963 442.768" stroke="#2D6070" stroke-width="3" stroke-linecap="round"/>
<path opacity="0.14" d="M374.289 403.655L425.562 396.449" stroke="#2D6070" stroke-width="3" stroke-linecap="round"/>
<path opacity="0.68" d="M187.283 414.922L612.569 385.183" stroke="#2D6070" stroke-width="3" stroke-linecap="round"/>
<path opacity="0.29" d="M266.63 400.052L533.221 400.052" stroke="#2D6070" stroke-width="3" stroke-linecap="round"/>
<path opacity="0.76" d="M435.641 402.55L364.21 397.555" stroke="#2D6070" stroke-width="3" stroke-linecap="round"/>
<path opacity="0.46" d="M711.375 443.824L88.4744 356.281" stroke="#2D6070" stroke-width="3" stroke-linecap="round"/>
<path opacity="0.55" d="M763.059 477.238L36.7952 322.866" stroke="#2D6070" stroke-width="3" stroke-linecap="round"/>
<path opacity="0.95" d="M570.944 449.091L228.907 351.014" stroke="#2D6070" stroke-width="3" stroke-linecap="round"/>
<path opacity="0.51" d="M515.866 442.251L283.986 357.853" stroke="#2D6070" stroke-width="3" stroke-linecap="round"/>
<path opacity="0.47" d="M726.495 545.45L73.3575 254.655" stroke="#2D6070" stroke-width="3" stroke-linecap="round"/>
<path opacity="0.17" d="M414.516 407.81L385.336 392.295" stroke="#2D6070" stroke-width="3" stroke-linecap="round"/>
<path opacity="0.21" d="M486.342 454.051L313.511 346.054" stroke="#2D6070" stroke-width="3" stroke-linecap="round"/>
<path opacity="0.97" d="M618.276 558.693L181.576 241.411" stroke="#2D6070" stroke-width="3" stroke-linecap="round"/>
<path opacity="0.2" d="M272.077 292.774L527.774 507.33" stroke="#2D6070" stroke-width="3" stroke-linecap="round"/>
<path opacity="0.27" d="M556.828 551.571L243.024 248.534" stroke="#2D6070" stroke-width="3" stroke-linecap="round"/>
<path opacity="0.8" d="M347.222 341.518L452.631 458.586" stroke="#2D6070" stroke-width="3" stroke-linecap="round"/>
<path opacity="0.36" d="M457.235 473.405L342.616 326.699" stroke="#2D6070" stroke-width="3" stroke-linecap="round"/>
<path opacity="0.67" d="M493.868 539.328L305.983 260.777" stroke="#2D6070" stroke-width="3" stroke-linecap="round"/>
<path opacity="0.79" d="M228.349 102.873L571.502 697.231" stroke="#2D6070" stroke-width="3" stroke-linecap="round"/>
<path opacity="0.53" d="M475.985 555.997L323.867 244.108" stroke="#2D6070" stroke-width="3" stroke-linecap="round"/>
<path opacity="0.32" d="M340.294 252.46L459.557 547.645" stroke="#2D6070" stroke-width="3" stroke-linecap="round"/>
<path opacity="0.11" d="M472.265 622.688L327.587 177.416" stroke="#2D6070" stroke-width="3" stroke-linecap="round"/>
<path opacity="0.62" d="M463.754 656.052L336.098 144.052" stroke="#2D6070" stroke-width="3" stroke-linecap="round"/>
<path opacity="0.31" d="M415.134 486.301L384.718 313.805" stroke="#2D6070" stroke-width="3" stroke-linecap="round"/>
<path opacity="0.84" d="M441.552 796.104L358.298 4" stroke="#2D6070" stroke-width="3" stroke-linecap="round"/>
<path opacity="0.67" d="M390.623 133.624L409.23 666.48" stroke="#2D6070" stroke-width="3" stroke-linecap="round"/>
<path opacity="0.09" d="M403.097 309.224L396.754 490.88" stroke="#2D6070" stroke-width="3" stroke-linecap="round"/>
<path opacity="0.46" d="M409.828 305.832L390.022 494.272" stroke="#2D6070" stroke-width="3" stroke-linecap="round"/>
<path opacity="0.23" d="M450.331 114.187L349.52 685.918" stroke="#2D6070" stroke-width="3" stroke-linecap="round"/>
<path opacity="0.45" d="M478.945 83.1259L320.907 716.979" stroke="#2D6070" stroke-width="3" stroke-linecap="round"/>
<path opacity="0.38" d="M389.714 431.483L410.139 368.621" stroke="#2D6070" stroke-width="3" stroke-linecap="round"/>
<path opacity="0.72" d="M393.942 414.863L405.91 385.242" stroke="#2D6070" stroke-width="3" stroke-linecap="round"/>
<path opacity="0.18" d="M217.626 773.825L582.228 26.2803" stroke="#2D6070" stroke-width="3" stroke-linecap="round"/>
<path opacity="0.12" d="M533.496 168.7L266.354 631.403" stroke="#2D6070" stroke-width="3" stroke-linecap="round"/>
<path opacity="0.82" d="M237.605 640.702L562.246 159.403" stroke="#2D6070" stroke-width="3" stroke-linecap="round"/>
<path opacity="0.98" d="M563.038 191.278L236.813 608.826" stroke="#2D6070" stroke-width="3" stroke-linecap="round"/>
<path opacity="0.27" d="M240.338 577.292L559.513 222.813" stroke="#2D6070" stroke-width="3" stroke-linecap="round"/>
<path opacity="0.47" d="M648.75 159.765L151.101 640.34" stroke="#2D6070" stroke-width="3" stroke-linecap="round"/>
<path opacity="0.85" d="M286.424 495.292L513.429 304.812" stroke="#2D6070" stroke-width="3" stroke-linecap="round"/>
<path opacity="0.91" d="M473.006 346.957L326.845 453.149" stroke="#2D6070" stroke-width="3" stroke-linecap="round"/>
<path opacity="0.82" d="M165.903 546.286L633.949 253.819" stroke="#2D6070" stroke-width="3" stroke-linecap="round"/>
<path opacity="0.36" d="M530.263 330.751L269.588 469.354" stroke="#2D6070" stroke-width="3" stroke-linecap="round"/>
<path opacity="0.34" d="M564.469 326.793L235.384 473.311" stroke="#2D6070" stroke-width="3" stroke-linecap="round"/>
<path opacity="0.64" d="M48.999 527.779L750.851 272.326" stroke="#2D6070" stroke-width="3" stroke-linecap="round"/>
<path opacity="0.31" d="M517.469 366.347L282.384 433.757" stroke="#2D6070" stroke-width="3" stroke-linecap="round"/>
<path opacity="0.41" d="M599.272 357.68L200.581 442.424" stroke="#2D6070" stroke-width="3" stroke-linecap="round"/>
<path d="M94.1719 404.281C94.1719 402.531 94.7656 401.062 95.9531 399.875C97.2031 398.625 98.7031 398 100.453 398H114.797L112.359 391.062C111.359 388.5 110.359 386.094 109.359 383.844C108.422 381.531 107.328 379.438 106.078 377.562C104.953 375.688 103.672 374.688 102.234 374.562C100.734 374.688 99.3906 375.688 98.2031 377.562C97.0156 379.438 95.9219 381.531 94.9219 383.844C93.9844 386.094 93.0156 388.5 92.0156 391.062L83.1094 415.438C82.4844 416.75 81.6719 417.844 80.6719 418.719C79.7344 419.531 78.2969 419.938 76.3594 419.938C74.5469 419.938 73.0469 419.312 71.8594 418.062C70.7344 416.812 70.2344 415.312 70.3594 413.562C70.4219 412.75 70.6094 412 70.9219 411.312L81.2344 384.688C84.1094 377.688 86.9844 372.031 89.8594 367.719C92.6719 363.469 96.7969 361.312 102.234 361.25C107.609 361.312 111.703 363.469 114.516 367.719C117.391 371.906 120.266 377.562 123.141 384.688L133.453 411.312C133.766 412 133.953 412.75 134.016 413.562C134.141 415.312 133.609 416.812 132.422 418.062C131.297 419.312 129.828 419.938 128.016 419.938C125.953 419.938 124.422 419.531 123.422 418.719C122.484 417.844 121.703 416.75 121.078 415.438L119.297 410.562H100.453C98.7031 410.562 97.2344 409.938 96.0469 408.688C94.7969 407.5 94.1719 406.031 94.1719 404.281ZM204.047 369.781C204.047 371.531 203.422 373 202.172 374.188C200.984 375.438 199.516 376.062 197.766 376.062H160.266C159.078 376.125 158.078 376.406 157.266 376.906C156.516 377.344 155.953 377.875 155.578 378.5C155.203 379.062 155.016 379.656 155.016 380.281C155.016 380.906 155.203 381.531 155.578 382.156C155.953 382.719 156.516 383.25 157.266 383.75C158.078 384.188 159.078 384.438 160.266 384.5H186.891C191.266 384.625 194.859 385.656 197.672 387.594C200.547 389.469 202.578 391.656 203.766 394.156C205.016 396.594 205.641 399.094 205.641 401.656C205.641 404.156 205.016 406.656 203.766 409.156C202.516 411.594 200.484 413.781 197.672 415.719C194.859 417.594 191.266 418.531 186.891 418.531H186.328C185.953 418.594 185.578 418.625 185.203 418.625H149.766C148.016 418.625 146.516 418.031 145.266 416.844C144.078 415.594 143.484 414.094 143.484 412.344C143.484 410.594 144.109 409.125 145.359 407.938C146.547 406.688 148.016 406.062 149.766 406.062H187.453C188.641 406.125 189.609 405.906 190.359 405.406C191.172 404.906 191.766 404.344 192.141 403.719C192.516 403.031 192.703 402.344 192.703 401.656C192.703 401.219 192.516 400.625 192.141 399.875C191.766 399.062 191.172 398.406 190.359 397.906C189.609 397.406 188.641 397.125 187.453 397.062H160.828C156.453 396.938 152.828 395.938 149.953 394.062C147.141 392.188 145.109 390.062 143.859 387.688C142.672 385.25 142.078 382.781 142.078 380.281C142.078 377.844 142.703 375.438 143.953 373.062C145.203 370.625 147.234 368.469 150.047 366.594C152.859 364.719 156.453 363.719 160.828 363.594H161.391C161.766 363.531 162.141 363.5 162.516 363.5H197.766C199.516 363.5 200.984 364.125 202.172 365.375C203.422 366.562 204.047 368.031 204.047 369.781ZM214.359 369.781C214.359 368.031 214.953 366.562 216.141 365.375C217.391 364.125 218.891 363.5 220.641 363.5H275.203C276.953 363.5 278.453 364.094 279.703 365.281C280.891 366.531 281.484 368.031 281.484 369.781C281.484 371.531 280.859 373.031 279.609 374.281C278.422 375.469 276.953 376.062 275.203 376.062H254.297V414.031C253.922 417.781 251.859 419.812 248.109 420.125C246.359 420.125 244.828 419.562 243.516 418.438C242.266 417.25 241.641 415.781 241.641 414.031V376.062H220.641C218.891 376.062 217.422 375.438 216.234 374.188C214.984 373 214.359 371.531 214.359 369.781ZM303.984 414.031C303.609 417.781 301.547 419.812 297.797 420.125C296.047 420.125 294.516 419.562 293.203 418.438C291.953 417.25 291.328 415.781 291.328 414.031V369.594C291.391 367.844 292.047 366.406 293.297 365.281C294.547 364.094 296.047 363.5 297.797 363.5H302.391H313.922H337.078C337.453 363.5 337.828 363.531 338.203 363.594H338.766C343.141 363.719 346.734 364.719 349.547 366.594C352.359 368.469 354.391 370.625 355.641 373.062C356.891 375.438 357.516 377.844 357.516 380.281C357.516 382.781 356.891 385.25 355.641 387.688C354.453 390.062 352.422 392.188 349.547 394.062C346.734 395.938 343.141 396.938 338.766 397.062H322.266C322.766 400.188 323.797 402.5 325.359 404C326.859 405.5 328.766 406.25 331.078 406.25H351.328C353.078 406.312 354.516 406.969 355.641 408.219C356.828 409.469 357.422 410.969 357.422 412.719C357.359 414.406 356.734 415.844 355.547 417.031C354.422 418.156 353.016 418.75 351.328 418.812H329.391C324.766 418.875 320.578 417.062 316.828 413.375C313.078 409.688 310.797 405.312 309.984 400.25C308.859 394.625 308.297 391.469 308.297 390.781C308.297 389.031 308.891 387.562 310.078 386.375C311.328 385.125 312.828 384.5 314.578 384.5H339.328C340.516 384.438 341.484 384.188 342.234 383.75C343.047 383.25 343.641 382.719 344.016 382.156C344.391 381.531 344.578 380.906 344.578 380.281C344.578 379.656 344.391 379.062 344.016 378.5C343.641 377.875 343.047 377.344 342.234 376.906C341.484 376.406 340.516 376.125 339.328 376.062H313.922H306.422C304.797 376.125 303.984 376.938 303.984 378.5V414.031ZM417.984 363.5C421.172 363.562 424.016 364.562 426.516 366.5C429.016 368.438 431.016 370.75 432.516 373.438C434.078 376.125 435.234 378.969 435.984 381.969C436.734 384.969 437.109 388.031 437.109 391.156C437.109 395.281 436.453 399.344 435.141 403.344C433.891 407.281 431.797 410.781 428.859 413.844C425.984 416.906 422.359 418.562 417.984 418.812H385.266C380.891 418.625 377.234 417 374.297 413.938C371.359 410.875 369.266 407.344 368.016 403.344C366.828 399.344 366.234 395.281 366.234 391.156C366.234 387.031 366.859 383 368.109 379.062C369.359 375.062 371.422 371.531 374.297 368.469C377.234 365.344 380.891 363.688 385.266 363.5H387.047H416.203H417.984ZM414.797 406.25C417.172 406.125 419.141 405.25 420.703 403.625C422.328 401.938 423.484 400 424.172 397.812C424.859 395.625 425.203 393.406 425.203 391.156C425.203 388.906 424.828 386.719 424.078 384.594C423.391 382.406 422.266 380.469 420.703 378.781C419.141 377.094 417.172 376.188 414.797 376.062H388.172C385.797 376.188 383.828 377.094 382.266 378.781C380.703 380.469 379.547 382.406 378.797 384.594C378.109 386.719 377.766 388.906 377.766 391.156C377.766 393.406 378.109 395.625 378.797 397.812C379.484 400 380.609 401.938 382.172 403.625C383.797 405.25 385.797 406.125 388.172 406.25H414.797ZM477.234 360.969C480.484 360.969 483.672 361.344 486.797 362.094C489.984 362.844 493.016 363.969 495.891 365.469C498.766 366.906 501.297 368.844 503.484 371.281C505.734 373.719 506.953 376.625 507.141 380V383.938V413.844C506.766 417.594 504.703 419.625 500.953 419.938C499.203 419.938 497.672 419.375 496.359 418.25C495.109 417.062 494.484 415.594 494.484 413.844V382.906C494.359 380.969 493.609 379.375 492.234 378.125C490.922 376.812 489.422 375.781 487.734 375.031C486.109 374.281 484.391 373.719 482.578 373.344C480.828 372.969 479.047 372.781 477.234 372.781C475.422 372.781 473.609 372.969 471.797 373.344C470.047 373.719 468.328 374.281 466.641 375.031C465.016 375.781 463.516 376.812 462.141 378.125C460.828 379.375 460.109 380.969 459.984 382.906V413.844C459.672 417.594 457.641 419.625 453.891 419.938C452.141 419.938 450.609 419.375 449.297 418.25C448.047 417.062 447.422 415.594 447.422 413.844V383.938V380C447.609 376.625 448.797 373.719 450.984 371.281C453.172 368.844 455.703 366.906 458.578 365.469C461.453 363.969 464.453 362.844 467.578 362.094C470.766 361.344 473.984 360.969 477.234 360.969ZM540.047 404.281C540.047 402.531 540.641 401.062 541.828 399.875C543.078 398.625 544.578 398 546.328 398H560.672L558.234 391.062C557.234 388.5 556.234 386.094 555.234 383.844C554.297 381.531 553.203 379.438 551.953 377.562C550.828 375.688 549.547 374.688 548.109 374.562C546.609 374.688 545.266 375.688 544.078 377.562C542.891 379.438 541.797 381.531 540.797 383.844C539.859 386.094 538.891 388.5 537.891 391.062L528.984 415.438C528.359 416.75 527.547 417.844 526.547 418.719C525.609 419.531 524.172 419.938 522.234 419.938C520.422 419.938 518.922 419.312 517.734 418.062C516.609 416.812 516.109 415.312 516.234 413.562C516.297 412.75 516.484 412 516.797 411.312L527.109 384.688C529.984 377.688 532.859 372.031 535.734 367.719C538.547 363.469 542.672 361.312 548.109 361.25C553.484 361.312 557.578 363.469 560.391 367.719C563.266 371.906 566.141 377.562 569.016 384.688L579.328 411.312C579.641 412 579.828 412.75 579.891 413.562C580.016 415.312 579.484 416.812 578.297 418.062C577.172 419.312 575.703 419.938 573.891 419.938C571.828 419.938 570.297 419.531 569.297 418.719C568.359 417.844 567.578 416.75 566.953 415.438L565.172 410.562H546.328C544.578 410.562 543.109 409.938 541.922 408.688C540.672 407.5 540.047 406.031 540.047 404.281ZM619.172 420.969C615.922 420.969 612.703 420.594 609.516 419.844C606.391 419.094 603.391 418 600.516 416.562C597.641 415.062 595.109 413.094 592.922 410.656C590.734 408.219 589.547 405.312 589.359 401.938V398V368.094C589.359 366.344 589.984 364.906 591.234 363.781C592.547 362.594 594.078 362 595.828 362C599.578 362.312 601.609 364.344 601.922 368.094V399.031C602.047 400.969 602.766 402.594 604.078 403.906C605.453 405.156 606.953 406.156 608.578 406.906C610.266 407.656 611.984 408.219 613.734 408.594C615.547 408.969 617.359 409.156 619.172 409.156C620.984 409.156 622.766 408.969 624.516 408.594C626.328 408.219 628.047 407.656 629.672 406.906C631.359 406.156 632.859 405.156 634.172 403.906C635.547 402.594 636.297 400.969 636.422 399.031V368.094C636.422 366.344 637.047 364.906 638.297 363.781C639.609 362.594 641.141 362 642.891 362C646.641 362.312 648.703 364.344 649.078 368.094V398V401.938C648.891 405.312 647.672 408.219 645.422 410.656C643.234 413.094 640.703 415.062 637.828 416.562C634.953 418 631.922 419.094 628.734 419.844C625.609 420.594 622.422 420.969 619.172 420.969ZM659.766 369.781C659.766 368.031 660.359 366.562 661.547 365.375C662.797 364.125 664.297 363.5 666.047 363.5H720.609C722.359 363.5 723.859 364.094 725.109 365.281C726.297 366.531 726.891 368.031 726.891 369.781C726.891 371.531 726.266 373.031 725.016 374.281C723.828 375.469 722.359 376.062 720.609 376.062H699.703V414.031C699.328 417.781 697.266 419.812 693.516 420.125C691.766 420.125 690.234 419.562 688.922 418.438C687.672 417.25 687.047 415.781 687.047 414.031V376.062H666.047C664.297 376.062 662.828 375.438 661.641 374.188C660.391 373 659.766 371.531 659.766 369.781Z" fill="white"/>
</svg>
