<svg width="32" height="32" viewBox="0 0 32 32" fill="none" xmlns="http://www.w3.org/2000/svg">
<path d="M15.9992 3.2002C8.93042 3.2002 3.19922 8.9314 3.19922 16.0002C3.19922 21.9981 7.32935 27.0167 12.8974 28.4055C12.8376 28.2327 12.7992 28.0322 12.7992 27.7837V25.5959C12.2798 25.5959 11.4094 25.5959 11.1907 25.5959C10.315 25.5959 9.53629 25.2194 9.15869 24.5197C8.73949 23.7421 8.66695 22.5527 7.62802 21.8253C7.31975 21.5831 7.55442 21.3069 7.90962 21.3442C8.56562 21.5298 9.10962 21.9799 9.62162 22.6477C10.1315 23.3165 10.3715 23.4679 11.324 23.4679C11.7859 23.4679 12.4771 23.4413 13.1278 23.3389C13.4776 22.4503 14.0824 21.6322 14.8216 21.2461C10.5592 20.8077 8.52509 18.6871 8.52509 15.8082C8.52509 14.5687 9.05309 13.3698 9.95015 12.3597C9.65575 11.357 9.28562 9.3122 10.0632 8.53353C11.9811 8.53353 13.1406 9.77726 13.419 10.1133C14.3747 9.7858 15.4243 9.6002 16.5272 9.6002C17.6323 9.6002 18.6862 9.7858 19.644 10.1154C19.9192 9.78153 21.0798 8.53353 23.0019 8.53353C23.7827 9.31326 23.4083 11.3666 23.1107 12.3671C24.0024 13.3751 24.5272 14.5709 24.5272 15.8082C24.5272 18.685 22.4963 20.8045 18.2403 21.245C19.4115 21.8562 20.2659 23.5735 20.2659 24.8674V27.7837C20.2659 27.8946 20.2414 27.9746 20.2286 28.0695C25.2163 26.3213 28.7992 21.5853 28.7992 16.0002C28.7992 8.9314 23.068 3.2002 15.9992 3.2002Z" fill="#FEFEFE"/>
</svg>
